<svg xmlns="http://www.w3.org/2000/svg" version="1.0" preserveAspectRatio="xMidYMid meet" viewBox="248.1 290.58 781.84 249.52">

<g transform="translate(0.000000,839.000000) scale(0.100000,-0.100000)" fill="#000000" stroke="none">
<path d="M3180 5480 c-372 -47 -669 -359 -697 -732 -11 -141 24 -313 100 -498 32 -77 146 -293 295 -555 47 -82 99 -175 115 -205 17 -30 41 -72 54 -92 13 -21 23 -40 23 -43 0 -3 20 -38 43 -78 24 -39 60 -101 79 -137 20 -36 47 -84 61 -108 l24 -43 15 23 c13 20 172 301 233 413 12 22 48 84 79 137 31 53 56 99 56 102 0 3 15 29 34 58 18 29 48 80 66 113 19 33 60 107 92 165 155 278 209 435 224 652 24 360 -240 717 -596 807 -93 23 -214 31 -300 21z m268 -210 c84 -23 213 -103 274 -169 104 -113 160 -256 160 -406 0 -157 -60 -355 -159 -530 -103 -179 -143 -254 -143 -264 0 -6 -4 -11 -9 -11 -5 0 -14 -15 -22 -32 -7 -18 -25 -51 -39 -73 -15 -22 -51 -85 -81 -140 -119 -222 -144 -265 -153 -262 -4 2 -23 30 -40 62 -49 91 -100 184 -206 370 -249 437 -316 584 -346 759 -45 256 63 500 278 628 160 95 310 116 486 68z"/>
<path d="M3200 4920 c0 -278 1 -274 -50 -245 -97 56 -260 -52 -260 -172 0 -102 79 -172 182 -160 65 8 112 38 144 92 l25 44 -1 245 c0 134 4 247 8 250 5 3 88 -32 185 -77 l176 -82 1 -168 0 -168 -30 16 c-72 37 -178 6 -229 -68 -59 -87 -48 -178 28 -232 89 -63 213 -26 270 80 20 38 21 52 21 355 l0 316 -229 117 c-125 64 -231 117 -235 117 -3 0 -6 -117 -6 -260z"/>
<path d="M4923 4755 c-186 -40 -344 -201 -398 -405 -20 -76 -19 -80 15 -80 l30 0 0 -72 c0 -141 45 -222 155 -278 67 -34 70 -35 189 -35 107 0 130 3 201 28 44 16 89 35 99 42 16 12 66 186 66 231 0 27 -66 15 -154 -27 -103 -50 -165 -60 -212 -34 -34 18 -64 74 -64 120 0 21 -5 25 -30 25 -27 0 -30 3 -30 29 0 16 17 63 38 103 68 134 174 174 287 109 28 -16 57 -36 64 -45 9 -10 29 -16 57 -16 37 0 44 3 49 23 3 12 14 60 25 107 28 118 28 118 -27 142 -105 47 -241 59 -360 33z"/>
<path d="M5381 4681 c-31 -133 -43 -121 117 -121 l139 0 21 94 c12 52 22 100 22 105 0 7 -48 11 -139 11 l-139 0 -21 -89z"/>
<path d="M7025 4750 c-4 -7 -11 -26 -15 -44 -24 -97 -100 -427 -100 -431 0 -3 14 -5 30 -5 17 0 30 -4 30 -8 0 -5 -18 -87 -40 -182 -22 -95 -40 -175 -40 -177 0 -2 111 -3 248 -1 286 4 316 11 413 97 73 65 112 137 113 210 1 55 1 56 -29 59 -23 2 -36 11 -50 37 -10 19 -21 35 -24 35 -3 0 -15 7 -25 15 -18 14 -17 17 26 63 91 97 99 217 19 283 -20 16 -52 34 -71 40 -53 17 -475 24 -485 9z m303 -224 c31 -31 -14 -86 -70 -86 -18 0 -19 4 -14 38 13 70 16 74 44 67 15 -3 33 -12 40 -19z m23 -296 c28 -15 25 -65 -6 -95 -19 -20 -34 -25 -74 -25 l-49 0 15 58 c8 31 17 60 20 65 6 11 71 9 94 -3z"/>
<path d="M5793 4628 l-19 -83 -36 -3 -36 -3 -21 -90 c-12 -50 -21 -92 -21 -95 0 -2 14 -4 31 -4 l32 0 -6 -45 c-7 -45 -6 -45 23 -45 17 0 30 -3 30 -6 0 -3 -10 -42 -21 -87 -38 -146 -25 -236 40 -268 28 -14 274 -25 315 -15 20 5 26 17 41 88 10 46 20 89 22 96 9 21 -65 14 -97 -9 -30 -23 -56 -20 -67 7 -5 14 19 140 34 182 4 8 -5 12 -27 12 -32 0 -32 0 -25 37 4 21 9 41 11 45 3 5 43 8 89 8 71 0 84 3 89 18 9 29 36 153 36 163 0 5 -38 9 -84 9 l-84 0 14 68 c8 37 17 75 20 85 5 16 -6 17 -130 17 l-134 0 -19 -82z"/>
<path d="M9261 4673 c-6 -21 -11 -42 -11 -48 0 -5 -5 -27 -11 -47 -9 -34 -13 -38 -44 -38 l-33 0 -21 -89 c-12 -49 -21 -91 -21 -95 0 -3 14 -6 31 -6 l31 0 -6 -45 -7 -45 31 0 c25 0 30 -3 26 -17 -50 -162 -54 -271 -11 -317 33 -36 84 -46 233 -46 153 0 139 -10 164 123 l15 77 -37 0 c-24 0 -43 -7 -55 -20 -23 -26 -51 -26 -65 0 -8 15 -6 41 10 106 11 47 20 87 20 90 0 2 -13 4 -30 4 -28 0 -29 2 -24 33 10 58 8 57 98 57 l84 0 21 91 c12 50 21 92 21 95 0 2 -38 4 -84 4 l-83 0 18 78 c10 42 19 80 19 85 0 4 -61 7 -135 7 l-134 0 -10 -37z"/>
<path d="M8024 4555 c-129 -28 -241 -109 -304 -219 -16 -30 -30 -56 -30 -60 0 -3 14 -6 31 -6 28 0 31 -2 24 -22 -3 -13 -9 -58 -12 -100 -5 -70 -3 -83 22 -133 47 -96 140 -139 300 -138 70 1 108 7 170 28 44 14 84 30 88 34 7 7 46 144 47 164 0 16 -71 6 -107 -15 -32 -19 -53 -23 -126 -23 -85 0 -90 1 -113 29 -14 15 -24 36 -22 45 3 14 27 16 195 19 l192 2 11 38 c17 61 14 72 -20 72 -30 0 -31 1 -25 34 4 19 2 59 -5 91 -27 130 -157 196 -316 160z m104 -189 c8 -8 12 -22 9 -30 -5 -13 -22 -16 -92 -15 -90 1 -107 12 -62 42 46 30 117 31 145 3z"/>
<path d="M8604 4545 c-104 -19 -108 -22 -127 -112 -26 -121 -29 -119 78 -73 88 37 178 42 195 10 13 -25 -4 -33 -108 -49 -88 -13 -156 -40 -129 -50 15 -5 12 -11 -18 -40 -73 -69 -104 -182 -68 -251 28 -55 96 -84 192 -82 42 1 143 3 225 4 l150 3 36 155 c20 85 40 167 43 183 7 25 5 27 -23 27 l-31 0 7 53 c4 28 6 54 6 57 0 65 -4 75 -44 115 -33 33 -55 45 -96 54 -68 14 -198 13 -288 -4z m172 -405 c-9 -68 -14 -77 -41 -83 -60 -11 -86 55 -39 98 22 21 38 27 78 34 5 0 6 -22 2 -49z"/>
<path d="M9994 4551 c-67 -11 -150 -49 -199 -92 -42 -37 -85 -118 -85 -161 0 -23 4 -28 25 -28 19 0 28 -9 44 -45 24 -55 61 -79 157 -100 41 -9 76 -20 79 -25 10 -16 -26 -32 -73 -32 -52 0 -96 17 -126 51 -13 14 -31 21 -57 21 l-37 0 -22 -96 c-25 -111 -30 -103 70 -135 89 -28 230 -28 321 0 125 39 202 134 203 248 1 52 -3 65 -23 87 -16 17 -35 26 -56 26 -17 0 -36 5 -42 11 -6 6 -46 21 -90 33 -63 18 -78 25 -78 41 0 31 90 25 150 -9 30 -18 57 -26 77 -24 30 3 33 6 50 73 28 110 28 110 -44 134 -74 24 -173 33 -244 22z"/>
<path d="M6246 4438 c21 -168 21 -166 52 -170 l27 -3 21 -160 22 -160 -78 -130 -78 -130 131 -3 c72 -1 136 -1 143 2 6 2 40 53 74 113 35 59 110 186 167 281 57 95 103 178 103 183 0 5 -9 9 -20 9 -11 0 -20 2 -20 3 0 2 33 62 74 133 l74 129 -131 3 c-72 1 -134 -1 -138 -5 -4 -4 -33 -56 -65 -115 -31 -60 -60 -105 -63 -102 -3 3 -10 53 -16 112 l-10 107 -141 3 -141 3 13 -103z"/>
<path d="M5335 4468 c-2 -7 -11 -47 -19 -88 -9 -41 -19 -85 -22 -97 -6 -20 -3 -23 26 -23 25 0 30 -3 26 -17 -3 -10 -19 -83 -36 -163 -17 -80 -34 -153 -36 -163 -5 -16 4 -17 132 -15 l138 3 38 165 c20 91 37 171 38 178 0 7 -12 12 -29 12 l-29 0 20 88 c10 48 22 97 25 110 l5 22 -136 0 c-101 0 -138 -3 -141 -12z"/>
</g>
</svg>